<?xml version="1.0" encoding="iso-8859-1"?>
<!-- Generator: Adobe Illustrator 19.0.0, SVG Export Plug-In . SVG Version: 6.00 Build 0)  -->
<svg version="1.1" id="Layer_1" xmlns="http://www.w3.org/2000/svg" xmlns:xlink="http://www.w3.org/1999/xlink" x="0px" y="0px"
	 viewBox="0 0 512 512" style="enable-background:new 0 0 512 512;" xml:space="preserve">
<circle style="fill:#5B5D6E;" cx="102.079" cy="315.858" r="25.653"/>
<circle style="fill:#D5DCED;" cx="409.921" cy="315.858" r="21.378"/>
<path d="M409.921,213.779c-9.975,0-19.617,1.445-28.737,4.125l-28.039-73.603h22.572c4.427,0,8.017-3.589,8.017-8.017v-8.551
	c0-18.566-15.105-33.67-33.67-33.67h-34.205c-4.427,0-8.017,3.589-8.017,8.017c0,4.427,3.589,8.017,8.017,8.017h34.205
	c9.725,0,17.637,7.912,17.637,17.637v0.534h-26.188c-2.637,0-5.105,1.297-6.601,3.467c-1.495,2.171-1.829,4.939-0.89,7.403
	l2.917,7.659L218.5,222.934l-35.04-70.082h21.234c4.427,0,8.017-3.589,8.017-8.017c0-4.427-3.589-8.017-8.017-8.017h-34.681
	c-4.045,0-8.095-0.957-11.712-2.765l-9.88-4.94c-3.96-1.981-8.776-0.375-10.755,3.585c-1.981,3.96-0.375,8.776,3.585,10.755
	l9.88,4.94c4.455,2.228,9.319,3.646,14.273,4.195l23.892,47.785l-27.629,32.653c-16.779-12.104-37.363-19.248-59.587-19.248
	C45.792,213.779,0,259.571,0,315.858s45.792,102.079,102.079,102.079c53.589,0,97.664-41.508,101.765-94.063h19.457
	c2.976,12.136,12.546,21.705,24.682,24.682v10.592h-0.534c-4.427,0-8.017,3.589-8.017,8.017c0,4.427,3.589,8.017,8.017,8.017h25.653
	c4.427,0,8.017-3.589,8.017-8.017c0-4.427-3.589-8.017-8.017-8.017h-9.086v-10.592c14.707-3.606,25.653-16.895,25.653-32.699
	c0-8.093-2.871-15.526-7.646-21.338l73.735-98.315l10.445,27.42c-34.474,16.406-58.364,51.581-58.364,92.233
	c0,56.287,45.792,102.079,102.079,102.079S512,372.145,512,315.858S466.208,213.779,409.921,213.779z M197.096,215.976
	l37.119,74.239c-5.309,4.517-9.202,10.646-10.913,17.626h-19.457c-1.96-25.115-13.051-47.705-29.946-64.45L197.096,215.976z
	 M134.778,307.841c-1.055-4.3-2.936-8.276-5.467-11.754l34.192-40.408c13.46,13.734,22.359,31.942,24.237,52.162H134.778z
	 M94.807,319.231c1.314,2.831,4.152,4.643,7.273,4.643h15.69c-2.926,5.701-8.853,9.62-15.69,9.62
	c-9.725,0-17.637-7.912-17.637-17.637c0-9.725,7.912-17.637,17.637-17.637c1.383,0,2.724,0.176,4.016,0.479l-10.136,11.979
	C93.943,313.063,93.493,316.399,94.807,319.231z M102.079,401.904c-47.446,0-86.046-38.6-86.046-86.046s38.6-86.046,86.046-86.046
	c18.28,0,35.234,5.747,49.186,15.505l-34.19,40.406c-4.519-2.259-9.61-3.537-14.997-3.537c-18.566,0.001-33.67,15.106-33.67,33.671
	c0,18.566,15.105,33.67,33.67,33.67c15.804,0,29.091-10.947,32.699-25.653h52.962C183.681,367.574,146.821,401.904,102.079,401.904z
	 M264.017,331.547v-15.689c0-4.427-3.589-8.017-8.017-8.017c-4.427,0-8.017,3.589-8.017,8.017v15.689
	c-5.701-2.926-9.62-8.853-9.62-15.689c0-9.725,7.912-17.637,17.637-17.637s17.637,7.912,17.637,17.637
	C273.637,322.695,269.718,328.623,264.017,331.547z M269.206,284.889c-4.058-1.737-8.52-2.701-13.206-2.701
	c-2.561,0-5.053,0.297-7.452,0.841l-22.851-45.703c0.144-0.08,0.293-0.145,0.434-0.236l116.64-74.983l6.239,16.377L269.206,284.889z
	 M409.921,401.904c-47.446,0-86.046-38.6-86.046-86.046c0-33.818,19.618-63.128,48.064-77.184l30.49,80.038
	c1.219,3.198,4.263,5.165,7.493,5.165c0.948,0,1.913-0.17,2.852-0.527c4.138-1.576,6.213-6.208,4.638-10.345l-30.493-80.045
	c7.328-2.036,15.036-3.148,23.003-3.148c47.446,0,86.046,38.6,86.046,86.046S457.367,401.904,409.921,401.904z"/>
<g>
</g>
<g>
</g>
<g>
</g>
<g>
</g>
<g>
</g>
<g>
</g>
<g>
</g>
<g>
</g>
<g>
</g>
<g>
</g>
<g>
</g>
<g>
</g>
<g>
</g>
<g>
</g>
<g>
</g>
</svg>
