<?xml version="1.0" encoding="iso-8859-1"?>
<!-- Generator: Adobe Illustrator 19.0.0, SVG Export Plug-In . SVG Version: 6.00 Build 0)  -->
<svg version="1.1" id="Layer_1" xmlns="http://www.w3.org/2000/svg" xmlns:xlink="http://www.w3.org/1999/xlink" x="0px" y="0px"
	 viewBox="0 0 463.001 463.001" style="enable-background:new 0 0 463.001 463.001;" xml:space="preserve">
<g>
	<g>
		<g>
			<path d="M199.5,159c10.394,0,20.013-3.365,27.842-9.051l6.854,6.854c1.464,1.464,3.384,2.196,5.303,2.196
				c1.919,0,3.839-0.732,5.303-2.196c2.929-2.93,2.929-7.678,0-10.607l-6.854-6.854c5.685-7.83,9.051-17.448,9.051-27.842
				c0-26.191-21.309-47.5-47.5-47.5c-10.394,0-20.013,3.365-27.842,9.051l-6.854-6.854c-2.929-2.928-7.678-2.928-10.606,0
				c-2.929,2.93-2.929,7.678,0,10.607l6.854,6.854C155.365,91.487,152,101.106,152,111.5C152,137.691,173.31,159,199.5,159z
				 M199.5,79c17.92,0,32.5,14.579,32.5,32.5c0,6.249-1.777,12.088-4.845,17.048l-44.703-44.703C187.412,80.777,193.252,79,199.5,79
				z M171.846,94.452l44.703,44.703C211.589,142.223,205.75,144,199.5,144c-17.92,0-32.5-14.579-32.5-32.5
				C167,105.251,168.777,99.412,171.846,94.452z"/>
			<path d="M407.5,208h-56.525c0.011-0.167,0.025-0.333,0.025-0.502v-17.732c9.29-3.138,16-11.93,16-22.266v-112
				c0-12.958-10.542-23.5-23.5-23.5H343V15.5C343,6.953,336.047,0,327.5,0h-256C62.953,0,56,6.953,56,15.5V32h-0.5
				C42.542,32,32,42.542,32,55.5v112c0,10.336,6.71,19.128,16,22.266v195.469c-9.29,3.138-16,11.93-16,22.266v32
				c0,12.958,10.542,23.5,23.5,23.5h288c12.958,0,23.5-10.542,23.5-23.5v-32c0-10.336-6.71-19.128-16-22.266V255h56.5
				c12.958,0,23.5-10.542,23.5-23.5S420.458,208,407.5,208z M71,15.5c0-0.275,0.224-0.5,0.5-0.5h256c0.276,0,0.5,0.225,0.5,0.5V32
				H71V15.5z M47,167.5v-112c0-4.687,3.813-8.5,8.5-8.5h288c4.687,0,8.5,3.813,8.5,8.5v112c0,4.687-3.813,8.5-8.5,8.5h-288
				C50.813,176,47,172.187,47,167.5z M63,384V191h97v17h-16.5c-4.142,0-7.5,3.357-7.5,7.5s3.358,7.5,7.5,7.5h1.495l5.118,35.823
				C151.756,270.326,161.758,279,173.378,279H176v8.5c0,4.143,3.358,7.5,7.5,7.5c4.142,0,7.5-3.357,7.5-7.5V279h17v8.5
				c0,4.143,3.358,7.5,7.5,7.5c4.142,0,7.5-3.357,7.5-7.5V279h2.623c11.62,0,21.621-8.674,23.264-20.177L251.719,239H280v8.5
				c0,4.143,3.358,7.5,7.5,7.5H336v129H63z M283.365,399l-6.15,12.301c-1.449,2.898-4.363,4.699-7.603,4.699H129.39
				c-3.24,0-6.154-1.801-7.603-4.699L115.635,399H283.365z M238.852,223l-4.815,33.702c-0.594,4.16-4.211,7.298-8.415,7.298h-52.245
				c-4.203,0-7.82-3.138-8.415-7.298L160.148,223H238.852z M175,208v-17h49v17H175z M312,240h-17v-17h17V240z M287.5,208
				c-4.142,0-7.5,3.357-7.5,7.5v8.5h-26.138l0.143-1h1.495c4.142,0,7.5-3.357,7.5-7.5s-3.358-7.5-7.5-7.5H239v-17h97v16.498
				c0,0.169,0.014,0.335,0.025,0.502H287.5z M352,407.5v32c0,4.687-3.813,8.5-8.5,8.5h-288c-4.687,0-8.5-3.813-8.5-8.5v-32
				c0-4.687,3.813-8.5,8.5-8.5h43.365l9.505,19.01c4.006,8.013,12.061,12.99,21.019,12.99h140.223
				c8.958,0,17.013-4.978,21.019-12.99l9.505-19.01H343.5C348.188,399,352,402.813,352,407.5z M407.5,240H327v-17h80.5
				c4.687,0,8.5,3.813,8.5,8.5S412.188,240,407.5,240z"/>
			<path d="M311.5,111c12.958,0,23.5-10.542,23.5-23.5S324.458,64,311.5,64S288,74.542,288,87.5S298.542,111,311.5,111z M311.5,79
				c4.687,0,8.5,3.813,8.5,8.5s-3.813,8.5-8.5,8.5s-8.5-3.813-8.5-8.5S306.813,79,311.5,79z"/>
			<path d="M263.5,95h8c4.142,0,7.5-3.357,7.5-7.5s-3.358-7.5-7.5-7.5h-8c-4.142,0-7.5,3.357-7.5,7.5S259.359,95,263.5,95z"/>
		</g>
	</g>
</g>
<g>
</g>
<g>
</g>
<g>
</g>
<g>
</g>
<g>
</g>
<g>
</g>
<g>
</g>
<g>
</g>
<g>
</g>
<g>
</g>
<g>
</g>
<g>
</g>
<g>
</g>
<g>
</g>
<g>
</g>
</svg>
