<?xml version='1.0' encoding='iso-8859-1'?>
<!DOCTYPE svg PUBLIC '-//W3C//DTD SVG 1.1//EN' 'http://www.w3.org/Graphics/SVG/1.1/DTD/svg11.dtd'>
<svg version="1.1" xmlns="http://www.w3.org/2000/svg" viewBox="0 0 315 315" xmlns:xlink="http://www.w3.org/1999/xlink" enable-background="new 0 0 315 315">
  <g>
    <path d="m308,0h-301c-3.866,0-7,3.134-7,7v301c0,3.866 3.134,7 7,7h301c3.866,0 7-3.134 7-7v-301c0-3.866-3.134-7-7-7zm-7,301h-287v-287h287v287z"/>
    <circle cx="200.919" cy="282.959" r="8.29"/>
    <circle cx="232.745" cy="282.959" r="8.29"/>
    <circle cx="264.57" cy="282.959" r="8.29"/>
    <path d="m94.313,283.352c35.203,0 63.843-28.64 63.843-63.842 0-35.202-28.64-63.842-63.843-63.842-35.202,0-63.842,28.64-63.842,63.842 0.001,35.202 28.64,63.842 63.842,63.842zm0-113.684c27.483,0 49.843,22.359 49.843,49.842 0,27.482-22.359,49.842-49.843,49.842-27.482,0-49.842-22.359-49.842-49.842 0.001-27.483 22.36-49.842 49.842-49.842z"/>
    <path d="m104.648,135.216c28.554,0 51.783-23.23 51.783-51.784 0-28.554-23.229-51.783-51.783-51.783s-51.784,23.229-51.784,51.783c0,28.553 23.231,51.784 51.784,51.784zm0-89.568c20.834,7.10543e-15 37.783,16.949 37.783,37.783 0,20.834-16.949,37.784-37.783,37.784-20.834,0-37.784-16.95-37.784-37.784 2.84217e-14-20.833 16.95-37.783 37.784-37.783z"/>
    <path d="m232.745,135.216c28.554,0 51.783-23.23 51.783-51.784 0-28.554-23.229-51.783-51.783-51.783s-51.783,23.229-51.783,51.783c0,28.553 23.229,51.784 51.783,51.784zm0-89.568c20.834,7.10543e-15 37.783,16.949 37.783,37.783 0,20.834-16.949,37.784-37.783,37.784s-37.783-16.95-37.783-37.784c0-20.833 16.949-37.783 37.783-37.783z"/>
    <path d="m232.745,262.194c28.554,0 51.783-23.23 51.783-51.783s-23.229-51.784-51.783-51.784-51.783,23.23-51.783,51.784 23.229,51.783 51.783,51.783zm0-89.567c20.834,0 37.783,16.95 37.783,37.784s-16.949,37.783-37.783,37.783-37.783-16.949-37.783-37.783 16.949-37.784 37.783-37.784z"/>
  </g>
</svg>
