<?xml version="1.0" encoding="iso-8859-1"?>
<!-- Generator: Adobe Illustrator 18.0.0, SVG Export Plug-In . SVG Version: 6.00 Build 0)  -->
<!DOCTYPE svg PUBLIC "-//W3C//DTD SVG 1.1//EN" "http://www.w3.org/Graphics/SVG/1.1/DTD/svg11.dtd">
<svg version="1.1" id="Capa_1" xmlns="http://www.w3.org/2000/svg" xmlns:xlink="http://www.w3.org/1999/xlink" x="0px" y="0px"
	 viewBox="0 0 459 459" style="enable-background:new 0 0 459 459;" xml:space="preserve">
<g>
	<path d="M453,127.15H217.92l-53.481-42.977c-2.195-1.764-5.321-1.764-7.517,0L114,118.665V107.15c0-3.313-2.687-6-6-6H61
		c-3.313,0-6,2.687-6,6v58.927L2.242,208.473c-1.984,1.595-2.747,4.268-1.901,6.669S3.454,219.15,6,219.15h28v151
		c0,3.313,2.686,6,6,6h413c3.314,0,6-2.687,6-6v-237C459,129.836,456.314,127.15,453,127.15z M447,139.15v68H317.473l-84.62-68H447z
		 M67,113.15h35v15.158l-35,28.126V113.15z M160.681,96.547L298.317,207.15h-12.768l-121.107-97.321
		c-2.195-1.764-5.321-1.764-7.517,0L35.819,207.15H23.045L160.681,96.547z M232,364.15h-36v-92h36V364.15z M421,286.65H307v-14.5
		h114V286.65z M307,298.65h114v13.5H307V298.65z M307,324.15h114v13.5H307V324.15z M307,349.65h114v14.5H307V349.65z M447,364.15
		h-14v-98c0-3.313-2.687-6-6-6H301c-3.313,0-6,2.687-6,6v98h-51v-98c0-3.313-2.686-6-6-6h-48c-3.314,0-6,2.687-6,6v98H46V214.362
		l114.684-92.159l118.995,95.624c1.065,0.856,2.392,1.323,3.758,1.323H447V364.15z"/>
	<path d="M140,246.15H81c-3.313,0-6,2.687-6,6v59c0,3.313,2.687,6,6,6h59c3.313,0,6-2.687,6-6v-59
		C146,248.836,143.314,246.15,140,246.15z M87,258.15h22v47H87V258.15z M134,305.15h-13v-47h13V305.15z"/>
</g>
<g>
</g>
<g>
</g>
<g>
</g>
<g>
</g>
<g>
</g>
<g>
</g>
<g>
</g>
<g>
</g>
<g>
</g>
<g>
</g>
<g>
</g>
<g>
</g>
<g>
</g>
<g>
</g>
<g>
</g>
</svg>
