<?xml version="1.0" encoding="iso-8859-1"?>
<!-- Generator: Adobe Illustrator 19.0.0, SVG Export Plug-In . SVG Version: 6.00 Build 0)  -->
<svg version="1.1" id="Layer_1" xmlns="http://www.w3.org/2000/svg" xmlns:xlink="http://www.w3.org/1999/xlink" x="0px" y="0px"
	 viewBox="0 0 511.147 511.147" style="enable-background:new 0 0 511.147 511.147;" xml:space="preserve">
<g transform="translate(1 1)">
	<g>
		<g>
			<path d="M507.587,327.96l-23.893-23.893c-3.413-3.413-8.533-3.413-11.947,0l-17.493,17.493l-12.373-12.373l17.92-17.92
				c3.413-3.413,3.413-8.533,0-11.947l-23.893-23.893c-3.413-3.413-8.533-3.413-11.947,0l-17.92,17.92L394.093,261.4l17.92-17.92
				c3.413-3.413,3.413-8.533,0-11.947L388.12,207.64c-3.413-3.413-8.533-3.413-11.947,0l-17.92,17.92l-12.8-12.8l17.92-17.92
				c3.413-3.413,3.413-8.533,0-11.947L339.48,159c-3.413-3.413-8.533-3.413-11.947,0l-17.92,17.92l-12.373-12.373l17.493-17.493
				c3.413-3.413,3.413-8.533,0-11.947l-23.893-23.893c-3.413-3.413-8.533-3.413-11.947,0L261.4,128.707l-5.547-5.547
				c-9.387-10.24-25.6-10.24-35.84,0l-18.722,18.722l-36.745-37.495c-3.413-3.413-8.533-3.413-11.947,0l-2.441,2.441
				c-2.873-6.142-8.093-10.82-14.626-13.012V66.84c0-5.12-3.413-8.533-8.533-8.533H92.867c-5.12,0-8.533,3.413-8.533,8.533v25.6
				H67.267v-25.6c0-5.12-3.413-8.533-8.533-8.533H24.6c-5.12,0-8.533,3.413-8.533,8.533v26.976C5.963,97.207-1,106.549-1,118.04
				v68.267v85.333v85.333v85.333c0,5.12,3.413,8.533,8.533,8.533h136.533c5.12,0,8.533-3.413,8.533-8.533v-85.333V271.64v-85.333
				V128.28l5.913-5.913l30.832,31.461L171.373,171.8c-1.707,1.707-2.56,3.413-2.56,5.973s0.853,4.267,2.56,5.973l17.847,17.847
				c-13.303,20.257-11.295,47.585,6.047,64.927c9.387,10.24,23.04,15.36,35.84,15.36c9.963,0,20.435-2.603,29.42-8.98l85.698,85.698
				c-6.194,8.382-9.305,18.476-9.305,29.095c0,13.653,5.973,26.453,15.36,35.84c9.387,10.24,23.04,15.36,35.84,15.36
				c9.963,0,19.922-3.117,29.08-9.32l18.707,18.707c1.707,1.707,3.413,2.56,5.973,2.56c2.56,0,4.267-0.853,6.827-1.707l48.64-48.64
				c10.24-9.387,10.24-25.6,0-35.84l-7.253-7.253l17.493-17.493C511,336.493,511,331.373,507.587,327.96z M285.72,128.28
				l11.947,11.947l-12.8,11.947l-11.947-11.947L285.72,128.28z M135.533,263.107H16.067V194.84h119.467V263.107z M16.067,280.173
				h119.467v68.267H16.067V280.173z M101.4,75.373h17.067V92.44H101.4V75.373z M33.133,75.373H50.2V92.44H33.133V75.373z
				 M16.067,118.04c0-5.12,3.413-8.533,8.533-8.533h34.133h34.133H127c5.12,0,8.533,3.413,8.533,8.533v59.733H16.067V118.04z
				 M135.533,433.773H16.067v-68.267h119.467V433.773z M429.933,273.347l11.947,11.947l-11.947,11.947l-11.947-11.947
				L429.933,273.347z M381.293,225.56l11.947,11.947l-11.52,11.52l-11.947-11.947L381.293,225.56z M333.507,176.92l11.947,11.947
				l-11.947,11.947l-3.66-3.66l-8.286-8.286L333.507,176.92z M207.213,256.28c-13.653-13.653-13.653-34.987,0-48.64
				c6.827-6.827,15.36-10.24,23.893-10.24s17.067,3.413,23.893,10.24c6.827,5.973,10.24,15.36,10.24,23.893
				c0,8.533-3.413,17.067-10.24,23.893c-1.121,1.121-1.867,2.248-2.251,3.611C239.128,269.852,219.872,268.939,207.213,256.28z
				 M364.227,411.587c-6.827-5.973-10.24-14.507-10.24-23.893c0-8.533,3.413-17.067,10.24-23.893c2.39-2.39,4.992-4.352,7.726-5.905
				c13.163-6.431,29.691-4.465,40.06,5.905c13.51,13.51,13.643,34.534,0.417,48.202C398.762,425.23,377.737,425.097,364.227,411.587
				z M485.4,388.547l-42.667,41.813l-12.593-12.593c6.686-8.568,10.033-19.041,10.033-30.073c0-13.653-5.973-26.453-15.36-35.84
				c0,0,0,0,0,0c-9.387-10.24-22.186-15.359-35.84-15.359c-11.093,0-21.333,3.413-29.867,9.387l-85.333-85.333
				c5.973-8.533,9.387-18.773,9.387-29.867c0-6.038-1.172-11.741-3.287-17.111c-2.396-7.195-6.413-13.923-12.073-19.583
				c-4.842-4.64-10.355-8.169-16.206-10.615c-0.076-0.032-0.151-0.064-0.227-0.096c-0.6-0.248-1.203-0.482-1.81-0.707
				c-0.213-0.079-0.426-0.159-0.641-0.235c-0.67-0.238-1.344-0.46-2.021-0.671c-0.035-0.011-0.069-0.022-0.104-0.033
				c-15.157-4.676-31.91-2.377-45.034,6.9l-12.464-12.464l15.568-15.568c0.664-0.392,1.194-0.888,1.499-1.499l24.747-24.747
				c3.413-3.413,8.533-3.413,11.947,0l10.076,10.076c0.426,0.975,1.047,1.9,1.871,2.724l23.893,23.893
				c0.903,0.903,1.809,1.559,2.838,1.985l21.908,21.908c0,0,0,0,0,0l23.893,23.893c0,0,0.001,0.001,0.001,0.001l24.745,24.745
				c0,0,0,0,0,0l23.893,23.893c0,0,0,0,0,0l31.551,31.551l16.235,16.235c0,0,0,0,0.001,0.001l22.022,22.022
				c0.426,0.975,1.047,1.9,1.871,2.724L472.6,363.8c0,0,0.001,0.001,0.001,0.001L485.4,376.6
				C488.813,380.013,488.813,385.133,485.4,388.547z M478.573,345.88l-0.977-0.977l-10.97-10.97l11.947-11.947l11.947,11.947
				L478.573,345.88z"/>
			<path d="M388.12,375.747l-11.947,11.947c-3.413,3.413-3.413,8.533,0,11.947c1.707,1.707,3.413,2.56,5.973,2.56
				c1.707,0,4.267-0.853,5.973-2.56l11.947-11.947c3.413-3.413,3.413-8.533,0-11.947
				C396.653,372.333,391.533,372.333,388.12,375.747z"/>
			<path d="M243.053,219.587c-3.413-3.413-8.533-3.413-11.947,0l-11.947,11.947c-3.413,3.413-3.413,8.533,0,11.947
				c1.707,1.707,3.413,2.56,5.973,2.56c1.707,0,4.267-0.853,5.973-2.56l11.947-11.947C246.467,228.12,246.467,223,243.053,219.587z"
				/>
		</g>
	</g>
</g>
<g>
</g>
<g>
</g>
<g>
</g>
<g>
</g>
<g>
</g>
<g>
</g>
<g>
</g>
<g>
</g>
<g>
</g>
<g>
</g>
<g>
</g>
<g>
</g>
<g>
</g>
<g>
</g>
<g>
</g>
</svg>
