<?xml version="1.0" encoding="iso-8859-1"?>
<!-- Generator: Adobe Illustrator 17.1.0, SVG Export Plug-In . SVG Version: 6.00 Build 0)  -->
<!DOCTYPE svg PUBLIC "-//W3C//DTD SVG 1.1//EN" "http://www.w3.org/Graphics/SVG/1.1/DTD/svg11.dtd">
<svg version="1.1" id="Capa_1" xmlns="http://www.w3.org/2000/svg" xmlns:xlink="http://www.w3.org/1999/xlink" x="0px" y="0px"
	 viewBox="0 0 358.787 358.787" style="enable-background:new 0 0 358.787 358.787;" xml:space="preserve">
<path d="M230.001,91.779c20.694,0,37.529-16.836,37.529-37.529s-16.835-37.528-37.529-37.528c-20.693,0-37.528,16.835-37.528,37.528
	S209.309,91.779,230.001,91.779z M230.001,34.722c10.769,0,19.529,8.761,19.529,19.528c0,10.769-8.761,19.529-19.529,19.529
	c-10.768,0-19.528-8.761-19.528-19.529C210.474,43.482,219.234,34.722,230.001,34.722z M238.122,241.713l-39.346,82.349h10.041
	c4.971,0,9,4.029,9,9s-4.029,9-9,9H184.55c-0.019,0-0.037,0.004-0.056,0.004c-0.482,0-0.967-0.053-1.45-0.132
	c-0.138-0.022-0.277-0.04-0.412-0.069c-0.136-0.028-0.271-0.068-0.406-0.104c-0.179-0.047-0.358-0.094-0.533-0.15
	c-0.117-0.039-0.233-0.085-0.35-0.129c-0.189-0.07-0.376-0.146-0.559-0.229c-0.054-0.024-0.11-0.042-0.164-0.067
	c-0.068-0.032-0.13-0.072-0.196-0.106c-0.138-0.07-0.274-0.144-0.408-0.221c-0.134-0.077-0.265-0.156-0.393-0.239
	c-0.109-0.07-0.215-0.143-0.32-0.218c-0.143-0.102-0.283-0.205-0.419-0.313c-0.083-0.066-0.164-0.136-0.245-0.205
	c-0.144-0.124-0.284-0.249-0.419-0.381c-0.07-0.068-0.137-0.14-0.205-0.21c-0.132-0.137-0.26-0.275-0.382-0.42
	c-0.069-0.082-0.134-0.166-0.2-0.249c-0.109-0.139-0.216-0.278-0.316-0.423c-0.073-0.104-0.14-0.212-0.208-0.318
	c-0.082-0.131-0.164-0.261-0.239-0.395c-0.074-0.13-0.142-0.264-0.209-0.398c-0.059-0.118-0.118-0.236-0.172-0.357
	c-0.067-0.149-0.127-0.303-0.186-0.456c-0.044-0.116-0.088-0.231-0.128-0.349c-0.052-0.155-0.098-0.313-0.142-0.471
	c-0.035-0.128-0.069-0.256-0.099-0.385c-0.033-0.146-0.061-0.292-0.087-0.439c-0.027-0.153-0.051-0.307-0.071-0.462
	c-0.016-0.127-0.028-0.254-0.038-0.382c-0.015-0.182-0.024-0.362-0.028-0.545c-0.001-0.061-0.009-0.12-0.009-0.181
	c0-0.054,0.007-0.105,0.008-0.159c0.003-0.186,0.013-0.371,0.028-0.558c0.01-0.121,0.02-0.242,0.034-0.361
	c0.02-0.163,0.045-0.324,0.074-0.486c0.025-0.145,0.052-0.288,0.085-0.431c0.03-0.13,0.064-0.259,0.1-0.388
	c0.047-0.172,0.097-0.341,0.154-0.508c0.035-0.103,0.073-0.203,0.111-0.305c0.071-0.188,0.148-0.372,0.231-0.553
	c0.02-0.043,0.034-0.087,0.054-0.13l41.69-87.257l-29.68-14.853c-4.445-2.225-6.245-7.632-4.021-12.076
	c2.225-4.445,7.632-6.245,12.076-4.021l37.583,18.808C238.417,231.981,240.237,237.286,238.122,241.713z M354.659,101.578
	c-2.826,1.82-10.678,7.001-18.99,12.486c-6.789,4.479-14.104,9.307-19.932,13.129c-10.674,7.002-17.988,10.035-28.422,10.035
	c-5.919,0-12.842-0.977-21.952-2.757c-0.019-0.004-0.037-0.01-0.057-0.014c-0.016-0.004-0.032-0.005-0.047-0.008l-102.648-21.323
	c-22.24-4.344-25.464-2.891-36.994,4.674c-5.8,3.805-13.078,8.606-19.838,13.067c-8.744,5.77-16.294,10.752-19.211,12.63
	c-1.507,0.97-3.195,1.434-4.864,1.434c-2.958,0-5.855-1.457-7.576-4.129c-2.69-4.179-1.484-9.748,2.695-12.439
	c2.832-1.823,10.706-7.019,19.042-12.52c6.774-4.47,14.067-9.282,19.879-13.094c16.729-10.975,25.203-12.199,50.374-7.278
	c0.035,0.007,0.069,0.014,0.104,0.021l102.602,21.314c22.28,4.354,25.501,2.903,37.04-4.665c5.815-3.814,13.116-8.632,19.89-13.103
	c8.718-5.752,16.247-10.721,19.158-12.595c4.177-2.692,9.748-1.487,12.439,2.693C360.044,93.317,358.838,98.887,354.659,101.578z
	 M124.996,333.062c0,4.971-4.029,9-9,9H91.699c-0.01,0-0.02,0.002-0.03,0.002c-0.062,0-0.124-0.011-0.186-0.012
	c-0.279-0.006-0.556-0.021-0.829-0.053c-0.122-0.014-0.243-0.036-0.364-0.056c-0.233-0.036-0.464-0.079-0.69-0.133
	c-0.113-0.026-0.225-0.056-0.338-0.087c-0.272-0.075-0.539-0.164-0.8-0.265c-0.063-0.023-0.127-0.043-0.19-0.069
	c-0.338-0.138-0.665-0.297-0.981-0.474c-0.015-0.008-0.03-0.014-0.045-0.021c-0.072-0.041-0.137-0.089-0.208-0.132
	c-0.164-0.1-0.328-0.199-0.486-0.309c-0.114-0.079-0.222-0.164-0.332-0.247c-0.119-0.092-0.238-0.181-0.353-0.277
	c-0.125-0.106-0.243-0.218-0.361-0.329c-0.091-0.085-0.182-0.17-0.269-0.259c-0.12-0.123-0.232-0.25-0.344-0.379
	c-0.079-0.091-0.159-0.182-0.235-0.275c-0.102-0.128-0.198-0.26-0.293-0.393c-0.077-0.107-0.153-0.214-0.225-0.325
	c-0.08-0.123-0.154-0.248-0.228-0.375c-0.076-0.13-0.151-0.261-0.221-0.395c-0.059-0.113-0.112-0.229-0.166-0.344
	c-0.071-0.152-0.14-0.305-0.203-0.462c-0.043-0.107-0.08-0.216-0.119-0.324c-0.059-0.165-0.116-0.331-0.165-0.501
	c-0.033-0.115-0.061-0.231-0.089-0.348c-0.04-0.162-0.08-0.324-0.111-0.489c-0.027-0.144-0.046-0.288-0.066-0.433
	c-0.019-0.14-0.041-0.278-0.054-0.42c-0.017-0.189-0.023-0.379-0.029-0.569c-0.002-0.084-0.013-0.165-0.013-0.249
	c0-0.021,0.003-0.039,0.003-0.06c0.001-0.216,0.016-0.433,0.033-0.648c0.006-0.083,0.008-0.168,0.017-0.251
	c0.021-0.197,0.056-0.395,0.09-0.592c0.017-0.1,0.029-0.201,0.05-0.3c0.031-0.149,0.075-0.297,0.114-0.445
	c0.038-0.144,0.071-0.289,0.116-0.43c0.032-0.1,0.073-0.198,0.109-0.298c0.066-0.185,0.131-0.369,0.208-0.548
	c0.035-0.08,0.077-0.157,0.114-0.236c0.09-0.193,0.182-0.385,0.285-0.569c0.01-0.019,0.017-0.037,0.028-0.056l105.342-186.166
	c2.448-4.325,7.94-5.849,12.265-3.4c4.326,2.448,5.849,7.939,3.401,12.266l-97.741,172.733h8.885
	C120.967,324.062,124.996,328.091,124.996,333.062z M124.157,193.051H26.12c-4.971,0-9-4.029-9-9s4.029-9,9-9h98.038
	c4.971,0,9,4.029,9,9S129.128,193.051,124.157,193.051z M95.718,234.113H66.733c-4.971,0-9-4.029-9-9s4.029-9,9-9h28.985
	c4.971,0,9,4.029,9,9S100.688,234.113,95.718,234.113z M19.528,227.958c0,4.971-4.029,9-9,9H9c-4.971,0-9-4.029-9-9s4.029-9,9-9
	h1.528C15.499,218.958,19.528,222.987,19.528,227.958z"/>
<g>
</g>
<g>
</g>
<g>
</g>
<g>
</g>
<g>
</g>
<g>
</g>
<g>
</g>
<g>
</g>
<g>
</g>
<g>
</g>
<g>
</g>
<g>
</g>
<g>
</g>
<g>
</g>
<g>
</g>
</svg>
