<?xml version="1.0" encoding="iso-8859-1"?>
<!-- Generator: Adobe Illustrator 19.0.0, SVG Export Plug-In . SVG Version: 6.00 Build 0)  -->
<svg version="1.1" id="Layer_1" xmlns="http://www.w3.org/2000/svg" xmlns:xlink="http://www.w3.org/1999/xlink" x="0px" y="0px"
	 viewBox="0 0 485 485" style="enable-background:new 0 0 485 485;" xml:space="preserve">
<g>
	<g>
		<path style="stroke:#000000;stroke-miterlimit:10;" d="M168.836,229.14c-0.182-0.242-0.819-0.697-1.911-1.365
			c-1.092-0.667-2.457-1.365-4.095-2.093c-1.638-0.728-3.428-1.365-5.369-1.911c-1.942-0.546-3.883-0.819-5.824-0.819
			c-5.339,0-8.008,1.79-8.008,5.369c0,1.092,0.287,2.002,0.864,2.73c0.576,0.728,1.425,1.381,2.548,1.957
			c1.122,0.577,2.532,1.107,4.231,1.592c1.698,0.486,3.67,1.032,5.915,1.638c3.094,0.85,5.884,1.774,8.372,2.775
			c2.487,1.001,4.595,2.245,6.324,3.731c1.729,1.487,3.063,3.292,4.004,5.415c0.94,2.125,1.411,4.672,1.411,7.644
			c0,3.64-0.683,6.72-2.047,9.236c-1.365,2.519-3.171,4.55-5.415,6.097c-2.245,1.547-4.823,2.67-7.735,3.367
			c-2.912,0.697-5.915,1.046-9.009,1.046c-2.366,0-4.793-0.182-7.28-0.546c-2.488-0.364-4.914-0.895-7.28-1.593
			c-2.366-0.697-4.657-1.531-6.871-2.502c-2.215-0.97-4.263-2.093-6.142-3.367l6.552-13.013c0.242,0.304,1.031,0.88,2.366,1.729
			c1.333,0.85,2.987,1.699,4.959,2.548c1.971,0.851,4.17,1.608,6.597,2.275c2.426,0.668,4.883,1.001,7.371,1.001
			c5.278,0,7.917-1.606,7.917-4.823c0-1.213-0.395-2.214-1.183-3.003c-0.789-0.788-1.881-1.501-3.276-2.139
			c-1.396-0.637-3.048-1.229-4.959-1.774s-3.99-1.152-6.233-1.82c-2.973-0.91-5.551-1.896-7.735-2.958
			c-2.184-1.061-3.99-2.29-5.415-3.686c-1.426-1.395-2.488-3.003-3.185-4.823c-0.698-1.82-1.046-3.943-1.046-6.37
			c0-3.397,0.637-6.4,1.911-9.009c1.274-2.608,3.003-4.807,5.187-6.598c2.184-1.789,4.716-3.139,7.599-4.049
			c2.881-0.91,5.929-1.365,9.146-1.365c2.244,0,4.459,0.213,6.643,0.637c2.184,0.425,4.277,0.971,6.279,1.638
			c2.002,0.668,3.868,1.426,5.597,2.275c1.729,0.85,3.321,1.699,4.777,2.548L168.836,229.14z"/>
		<path style="stroke:#000000;stroke-miterlimit:10;" d="M207.056,210.212h13.468l23.569,64.61h-15.289l-5.005-14.469h-20.111
			l-4.914,14.469h-15.288L207.056,210.212z M221.343,250.07l-7.553-22.841l-7.735,22.841H221.343z"/>
		<path style="stroke:#000000;stroke-miterlimit:10;" d="M255.014,274.822v-64.61h14.924v51.506h31.304v13.104H255.014z"/>
		<path style="stroke:#000000;stroke-miterlimit:10;" d="M358.206,261.718v13.104h-45.408v-64.61h44.59v13.104h-29.666v12.558
			h25.479v12.103h-25.479v13.741H358.206z"/>
	</g>
	<g>
		<path d="M485,371.939H0V113.061h485V371.939z M30,341.939h425V143.061H30V341.939z"/>
	</g>
</g>
<g>
</g>
<g>
</g>
<g>
</g>
<g>
</g>
<g>
</g>
<g>
</g>
<g>
</g>
<g>
</g>
<g>
</g>
<g>
</g>
<g>
</g>
<g>
</g>
<g>
</g>
<g>
</g>
<g>
</g>
</svg>
