<?xml version="1.0" encoding="iso-8859-1"?>
<!-- Generator: Adobe Illustrator 19.0.0, SVG Export Plug-In . SVG Version: 6.00 Build 0)  -->
<svg version="1.1" id="Capa_1" xmlns="http://www.w3.org/2000/svg" xmlns:xlink="http://www.w3.org/1999/xlink" x="0px" y="0px"
	 viewBox="0 0 463 463" style="enable-background:new 0 0 463 463;" xml:space="preserve">
<g>
	<path d="M323.5,0h-176C125.72,0,108,17.72,108,39.5v48.525c-0.166-0.011-0.331-0.025-0.5-0.025c-4.142,0-7.5,3.358-7.5,7.5v32
		c0,4.142,3.358,7.5,7.5,7.5c0.169,0,0.334-0.014,0.5-0.025v17.05c-0.166-0.011-0.331-0.025-0.5-0.025c-4.142,0-7.5,3.358-7.5,7.5
		v32c0,4.142,3.358,7.5,7.5,7.5c0.169,0,0.334-0.014,0.5-0.025V423.5c0,21.78,17.72,39.5,39.5,39.5h176
		c21.78,0,39.5-17.72,39.5-39.5v-384C363,17.72,345.28,0,323.5,0z M348,423.5c0,13.509-10.991,24.5-24.5,24.5h-176
		c-13.509,0-24.5-10.991-24.5-24.5v-384c0-13.509,10.991-24.5,24.5-24.5h176c13.509,0,24.5,10.991,24.5,24.5V423.5z"/>
	<path d="M163.5,32C150.542,32,140,42.542,140,55.5S150.542,79,163.5,79S187,68.458,187,55.5S176.458,32,163.5,32z M163.5,64
		c-4.687,0-8.5-3.813-8.5-8.5s3.813-8.5,8.5-8.5s8.5,3.813,8.5,8.5S168.187,64,163.5,64z"/>
	<path d="M243.5,70c7.995,0,14.5-6.505,14.5-14.5S251.495,41,243.5,41S229,47.505,229,55.5S235.505,70,243.5,70z"/>
	<path d="M203.5,63h8c4.142,0,7.5-3.358,7.5-7.5s-3.358-7.5-7.5-7.5h-8c-4.142,0-7.5,3.358-7.5,7.5S199.358,63,203.5,63z"/>
	<path d="M235.5,192c-21.78,0-39.5,17.72-39.5,39.5s17.72,39.5,39.5,39.5s39.5-17.72,39.5-39.5S257.28,192,235.5,192z M235.5,256
		c-13.509,0-24.5-10.991-24.5-24.5s10.991-24.5,24.5-24.5s24.5,10.991,24.5,24.5S249.009,256,235.5,256z"/>
</g>
<g>
</g>
<g>
</g>
<g>
</g>
<g>
</g>
<g>
</g>
<g>
</g>
<g>
</g>
<g>
</g>
<g>
</g>
<g>
</g>
<g>
</g>
<g>
</g>
<g>
</g>
<g>
</g>
<g>
</g>
</svg>
