<?xml version="1.0" encoding="utf-8"?><!-- Uploaded to: SVG Repo, www.svgrepo.com, Generator: SVG Repo Mixer Tools -->
<svg width="800px" height="800px" viewBox="0 0 24 24" fill="none" xmlns="http://www.w3.org/2000/svg">
<mask id="path-1-inside-1" fill="white">
<path fill-rule="evenodd" clip-rule="evenodd" d="M12.9482 4.18011C12.7985 3.71945 12.1468 3.71945 11.9972 4.18011L10.3398 9.28092C10.2729 9.48693 10.0809 9.62641 9.86427 9.62641H4.50096C4.0166 9.62641 3.81521 10.2462 4.20707 10.5309L8.54608 13.6834C8.72132 13.8107 8.79465 14.0364 8.72771 14.2424L7.07036 19.3432C6.92068 19.8039 7.44792 20.1869 7.83978 19.9022L12.1788 16.7498C12.354 16.6224 12.5913 16.6224 12.7666 16.7498L17.1056 19.9022C17.4974 20.1869 18.0247 19.8039 17.875 19.3432L16.2177 14.2424C16.1507 14.0364 16.224 13.8107 16.3993 13.6834L20.7383 10.5309C21.1302 10.2462 20.9288 9.62641 20.4444 9.62641H15.0811C14.8645 9.62641 14.6725 9.48693 14.6056 9.28092L12.9482 4.18011ZM13.7342 11.2527L12.4994 7.79779L11.2646 11.2527H7.26858L10.5014 13.388L9.26657 16.8429L12.4994 14.7076L15.7322 16.8429L14.4974 13.388L17.7302 11.2527H13.7342Z"/>
</mask>
<path fill-rule="evenodd" clip-rule="evenodd" d="M12.9482 4.18011C12.7985 3.71945 12.1468 3.71945 11.9972 4.18011L10.3398 9.28092C10.2729 9.48693 10.0809 9.62641 9.86427 9.62641H4.50096C4.0166 9.62641 3.81521 10.2462 4.20707 10.5309L8.54608 13.6834C8.72132 13.8107 8.79465 14.0364 8.72771 14.2424L7.07036 19.3432C6.92068 19.8039 7.44792 20.1869 7.83978 19.9022L12.1788 16.7498C12.354 16.6224 12.5913 16.6224 12.7666 16.7498L17.1056 19.9022C17.4974 20.1869 18.0247 19.8039 17.875 19.3432L16.2177 14.2424C16.1507 14.0364 16.224 13.8107 16.3993 13.6834L20.7383 10.5309C21.1302 10.2462 20.9288 9.62641 20.4444 9.62641H15.0811C14.8645 9.62641 14.6725 9.48693 14.6056 9.28092L12.9482 4.18011ZM13.7342 11.2527L12.4994 7.79779L11.2646 11.2527H7.26858L10.5014 13.388L9.26657 16.8429L12.4994 14.7076L15.7322 16.8429L14.4974 13.388L17.7302 11.2527H13.7342Z" fill="#000000"/>
<path d="M11.9972 4.18011L11.0461 3.87109L11.0461 3.87109L11.9972 4.18011ZM12.9482 4.18011L13.8993 3.87109L13.8993 3.87109L12.9482 4.18011ZM10.3398 9.28092L9.38874 8.9719L9.38874 8.9719L10.3398 9.28092ZM4.20707 10.5309L3.61928 11.3399L3.61928 11.3399L4.20707 10.5309ZM8.54608 13.6834L7.95829 14.4924L7.95829 14.4924L8.54608 13.6834ZM8.72771 14.2424L7.77666 13.9334L7.77666 13.9334L8.72771 14.2424ZM7.07036 19.3432L6.1193 19.0342L6.1193 19.0342L7.07036 19.3432ZM7.83978 19.9022L8.42756 20.7113L8.42756 20.7113L7.83978 19.9022ZM12.1788 16.7498L12.7666 17.5588L12.7666 17.5588L12.1788 16.7498ZM12.7666 16.7498L12.1788 17.5588L12.1788 17.5588L12.7666 16.7498ZM17.1056 19.9022L16.5178 20.7113L16.5178 20.7113L17.1056 19.9022ZM17.875 19.3432L16.9239 19.6522L16.9239 19.6522L17.875 19.3432ZM16.2177 14.2424L17.1687 13.9334L17.1687 13.9334L16.2177 14.2424ZM16.3993 13.6834L15.8115 12.8744L15.8115 12.8744L16.3993 13.6834ZM20.7383 10.5309L20.1505 9.7219L20.1505 9.7219L20.7383 10.5309ZM14.6056 9.28092L15.5566 8.9719L15.5566 8.9719L14.6056 9.28092ZM12.4994 7.79779L11.5577 7.46123L12.4994 4.82656L13.4411 7.46123L12.4994 7.79779ZM13.7342 11.2527V12.2527H13.0297L12.7926 11.5893L13.7342 11.2527ZM11.2646 11.2527L12.2062 11.5893L11.9691 12.2527H11.2646V11.2527ZM7.26858 11.2527L6.71745 12.0871L3.9401 10.2527H7.26858V11.2527ZM10.5014 13.388L11.0525 12.5535L11.7071 12.9859L11.4431 13.7245L10.5014 13.388ZM9.26657 16.8429L9.8177 17.6773L7.31576 19.3298L8.32491 16.5063L9.26657 16.8429ZM12.4994 14.7076L11.9483 13.8732L12.4994 13.5092L13.0505 13.8732L12.4994 14.7076ZM15.7322 16.8429L16.6739 16.5063L17.683 19.3298L15.1811 17.6773L15.7322 16.8429ZM14.4974 13.388L13.5557 13.7245L13.2917 12.9859L13.9463 12.5535L14.4974 13.388ZM17.7302 11.2527V10.2527H21.0587L18.2813 12.0871L17.7302 11.2527ZM11.0461 3.87109C11.4951 2.48912 13.4502 2.48912 13.8993 3.87109L11.9972 4.48912C12.1468 4.94978 12.7985 4.94978 12.9482 4.48912L11.0461 3.87109ZM9.38874 8.9719L11.0461 3.87109L12.9482 4.48912L11.2909 9.58994L9.38874 8.9719ZM9.86427 8.62641C9.64766 8.62641 9.45568 8.76589 9.38874 8.9719L11.2909 9.58994C11.09 10.208 10.5141 10.6264 9.86427 10.6264V8.62641ZM4.50096 8.62641H9.86427V10.6264H4.50096V8.62641ZM3.61928 11.3399C2.44371 10.4858 3.04787 8.62641 4.50096 8.62641V10.6264C4.98532 10.6264 5.18671 10.0066 4.79485 9.7219L3.61928 11.3399ZM7.95829 14.4924L3.61928 11.3399L4.79485 9.7219L9.13386 12.8744L7.95829 14.4924ZM7.77666 13.9334C7.70972 14.1394 7.78305 14.3651 7.95829 14.4924L9.13386 12.8744C9.65959 13.2563 9.87958 13.9334 9.67877 14.5514L7.77666 13.9334ZM6.1193 19.0342L7.77666 13.9334L9.67877 14.5514L8.02141 19.6522L6.1193 19.0342ZM8.42756 20.7113C7.25199 21.5654 5.67027 20.4162 6.1193 19.0342L8.02141 19.6522C8.17109 19.1916 7.64385 18.8085 7.25199 19.0932L8.42756 20.7113ZM12.7666 17.5588L8.42756 20.7113L7.25199 19.0932L11.591 15.9407L12.7666 17.5588ZM12.1788 17.5588C12.354 17.6861 12.5913 17.6861 12.7666 17.5588L11.591 15.9407C12.1167 15.5588 12.8286 15.5588 13.3544 15.9407L12.1788 17.5588ZM16.5178 20.7113L12.1788 17.5588L13.3544 15.9407L17.6934 19.0932L16.5178 20.7113ZM18.8261 19.0342C19.2751 20.4162 17.6934 21.5654 16.5178 20.7113L17.6934 19.0932C17.3015 18.8085 16.7743 19.1916 16.9239 19.6522L18.8261 19.0342ZM17.1687 13.9334L18.8261 19.0342L16.9239 19.6522L15.2666 14.5514L17.1687 13.9334ZM16.9871 14.4924C17.1623 14.3651 17.2356 14.1394 17.1687 13.9334L15.2666 14.5514C15.0658 13.9334 15.2858 13.2563 15.8115 12.8744L16.9871 14.4924ZM21.3261 11.3399L16.9871 14.4924L15.8115 12.8744L20.1505 9.7219L21.3261 11.3399ZM20.4444 8.62641C21.8975 8.62641 22.5017 10.4858 21.3261 11.3399L20.1505 9.7219C19.7587 10.0066 19.96 10.6264 20.4444 10.6264V8.62641ZM15.0811 8.62641H20.4444V10.6264H15.0811V8.62641ZM15.5566 8.9719C15.4897 8.76589 15.2977 8.62641 15.0811 8.62641V10.6264C14.4313 10.6264 13.8553 10.208 13.6545 9.58993L15.5566 8.9719ZM13.8993 3.87109L15.5566 8.9719L13.6545 9.58994L11.9972 4.48912L13.8993 3.87109ZM13.4411 7.46123L14.6759 10.9161L12.7926 11.5893L11.5577 8.13435L13.4411 7.46123ZM10.3229 10.9161L11.5577 7.46123L13.4411 8.13435L12.2062 11.5893L10.3229 10.9161ZM7.26858 10.2527H11.2646V12.2527H7.26858V10.2527ZM9.95027 14.2224L6.71745 12.0871L7.81971 10.4183L11.0525 12.5535L9.95027 14.2224ZM8.32491 16.5063L9.55974 13.0514L11.4431 13.7245L10.2082 17.1794L8.32491 16.5063ZM13.0505 15.542L9.8177 17.6773L8.71544 16.0085L11.9483 13.8732L13.0505 15.542ZM15.1811 17.6773L11.9483 15.542L13.0505 13.8732L16.2833 16.0085L15.1811 17.6773ZM15.439 13.0514L16.6739 16.5063L14.7905 17.1794L13.5557 13.7245L15.439 13.0514ZM18.2813 12.0871L15.0485 14.2224L13.9463 12.5535L17.1791 10.4183L18.2813 12.0871ZM13.7342 10.2527H17.7302V12.2527H13.7342V10.2527Z" fill="#000000" mask="url(#path-1-inside-1)"/>
</svg>